<?xml version="1.0" encoding="UTF-8"?>
<svg version="1.1" xmlns="http://www.w3.org/2000/svg" width="512" height="512">
<path d="M0 0 C2.20884426 -0.00599135 4.41768643 -0.01279828 6.62652588 -0.02035522 C12.60417646 -0.03796317 18.5817697 -0.04270848 24.55944371 -0.0439868 C28.30198395 -0.0454122 32.04450979 -0.04968921 35.78704643 -0.05498123 C48.19249942 -0.07251375 60.5979247 -0.08182361 73.00338859 -0.08032028 C74.0040379 -0.08020042 74.0040379 -0.08020042 75.02490234 -0.08007812 C75.69282979 -0.07999636 76.36075724 -0.0799146 77.04892492 -0.07983036 C87.85785747 -0.07901858 98.66665031 -0.09813445 109.47554249 -0.12635486 C120.61112584 -0.15519545 131.74665174 -0.16852409 142.88227457 -0.16716731 C149.11910577 -0.16665968 155.3557788 -0.17223207 161.59257698 -0.19352341 C167.46552848 -0.21302638 173.33817292 -0.21294836 179.21113586 -0.19849014 C181.35312796 -0.19641566 183.4951399 -0.20102058 185.63709831 -0.21321106 C217.50963467 -0.38269635 245.17155771 9.33330529 268.32397461 31.91552734 C290.16564629 53.88241746 299.67701307 82.50980138 299.63061523 113.01831055 C299.20706944 140.1440277 287.73182888 161.27113258 274.12817383 184.04638672 C270.7745867 189.68577748 267.48545733 195.36190414 264.19897461 201.04052734 C263.58852295 202.08660156 262.97807129 203.13267578 262.34912109 204.21044922 C249.94167251 225.23615974 249.94167251 225.23615974 250.30834961 248.95458984 C252.25188734 255.09277203 255.47922806 260.34944471 258.76147461 265.85302734 C283.07634962 308.01897072 292.58283442 359.44039913 280.2890625 407.03271484 C275.43749351 424.7969746 267.4135657 441.41570057 255.19897461 455.29052734 C254.52479492 456.09619141 253.85061523 456.90185547 253.15600586 457.73193359 C221.27028031 494.84482726 169.38734786 508.24749487 122.45318604 512.07489014 C117.28374638 512.41743811 112.12448942 512.47281606 106.94506836 512.49365234 C105.80530045 512.49935242 104.66553253 512.50505249 103.4912262 512.51092529 C101.08693347 512.52031382 98.68262824 512.52688458 96.27832031 512.53076172 C92.69758935 512.54036346 89.11745954 512.57140407 85.53686523 512.60302734 C32.52971143 512.84688575 -25.38857305 501.389964 -64.76586914 463.35693359 C-91.42117826 436.83628976 -101.91378544 401.26024005 -102.17602539 364.41552734 C-101.92563863 329.11099459 -92.61634918 296.16867422 -75.14086914 265.60693359 C-74.6901001 264.81480469 -74.23933105 264.02267578 -73.77490234 263.20654297 C-72.90380375 261.6866533 -72.02156125 260.17307185 -71.12597656 258.66748047 C-66.10606315 249.9560123 -64.21534731 240.29862119 -66.45556641 230.39770508 C-68.94796067 221.89420303 -72.58662312 214.69352486 -77.11352539 207.10302734 C-77.82257225 205.8906082 -78.53022727 204.67737413 -79.23657227 203.46337891 C-80.69084487 200.96825157 -82.15197577 198.47737051 -83.61987305 195.99023438 C-109.21797851 152.61159637 -109.21797851 152.61159637 -113.80102539 134.29052734 C-113.98576416 133.56551025 -114.17050293 132.84049316 -114.36083984 132.09350586 C-120.52546228 105.14845145 -114.88723229 76.03688338 -100.92602539 52.54052734 C-84.89311883 27.54006288 -61.92676622 9.37063254 -32.80102539 2.29052734 C-32.15062066 2.12296118 -31.50021593 1.95539501 -30.83010197 1.78275108 C-20.68755031 -0.45852761 -10.32745417 -0.0055964 0 0 Z M-41.80102539 79.29052734 C-49.93088687 89.20820559 -53.13060406 100.55159521 -52.80102539 113.29052734 C-50.3676192 133.3981469 -31.87724559 167.15455118 -16.08227539 179.79052734 C-7.80710493 185.23173532 1.28491218 188.02775507 11.19897461 187.29052734 C16.18615874 186.18618627 20.97259952 184.67925542 25.81567383 183.06835938 C47.37839663 176.03098641 68.23040719 172.05955786 90.94897461 172.04052734 C91.67618713 172.0398526 92.40339966 172.03917786 93.15264893 172.03848267 C116.98654316 172.07343739 138.85598984 176.51856796 161.3269043 184.32299805 C172.88070811 188.32947297 183.26569431 188.00127797 194.48413086 182.78271484 C202.87372804 178.17145423 207.17924573 171.84094275 211.85864258 163.63232422 C213.49550819 160.77243078 215.16223463 157.93062767 216.82788086 155.08740234 C218.16095318 152.80155083 219.49297273 150.51508505 220.82397461 148.22802734 C221.45762939 147.14030029 222.09128418 146.05257324 222.74414062 144.93188477 C231.45857572 129.82876126 238.52066306 117.17654209 235.19897461 99.29052734 C233.12060508 92.7762348 230.35645582 86.74722144 226.19897461 81.29052734 C225.47709961 80.30052734 224.75522461 79.31052734 224.01147461 78.29052734 C216.77941711 69.89695758 205.00163737 64.73445849 194.19897461 63.29052734 C191.37009656 63.19572921 188.56608851 63.14692668 185.73764038 63.15008545 C184.89976884 63.14711433 184.06189729 63.1441432 183.1986357 63.14108205 C180.39844549 63.13242883 177.59829821 63.13088966 174.7980957 63.12939453 C172.78714914 63.12476392 170.77620346 63.11973894 168.76525879 63.11434937 C163.3063051 63.10124573 157.8473637 63.09478424 152.38839674 63.09033871 C148.97475616 63.08740436 145.56111891 63.08329884 142.14748001 63.07883453 C131.45807771 63.06516423 120.76868306 63.0554956 110.07927263 63.05163264 C97.756754 63.04715458 85.43434645 63.02961634 73.11186159 63.00063205 C63.5761732 62.9789845 54.04051599 62.9689267 44.5048033 62.96759152 C38.81472666 62.96654559 33.1247545 62.96068299 27.43470383 62.94277191 C22.07814853 62.92623838 16.72177565 62.92416135 11.36520386 62.93291092 C9.40613947 62.9336785 7.44706507 62.92937565 5.48802567 62.91945267 C-13.10637347 62.8308395 -28.36433717 65.18779639 -41.80102539 79.29052734 Z " fill="#0F4C75" transform="translate(164.801025390625,-0.29052734375)"/>
<path d="M0 0 C2.20884426 -0.00599135 4.41768643 -0.01279828 6.62652588 -0.02035522 C12.60417646 -0.03796317 18.5817697 -0.04270848 24.55944371 -0.0439868 C28.30198395 -0.0454122 32.04450979 -0.04968921 35.78704643 -0.05498123 C48.19249942 -0.07251375 60.5979247 -0.08182361 73.00338859 -0.08032028 C74.0040379 -0.08020042 74.0040379 -0.08020042 75.02490234 -0.08007812 C75.69282979 -0.07999636 76.36075724 -0.0799146 77.04892492 -0.07983036 C87.85785747 -0.07901858 98.66665031 -0.09813445 109.47554249 -0.12635486 C120.61112584 -0.15519545 131.74665174 -0.16852409 142.88227457 -0.16716731 C149.11910577 -0.16665968 155.3557788 -0.17223207 161.59257698 -0.19352341 C167.46552848 -0.21302638 173.33817292 -0.21294836 179.21113586 -0.19849014 C181.35312796 -0.19641566 183.4951399 -0.20102058 185.63709831 -0.21321106 C217.50963467 -0.38269635 245.17155771 9.33330529 268.32397461 31.91552734 C290.16564629 53.88241746 299.67701307 82.50980138 299.63061523 113.01831055 C299.34902467 131.05259634 294.72517438 147.40506905 286.19897461 163.29052734 C285.53897461 163.62052734 284.87897461 163.95052734 284.19897461 164.29052734 C281.81420898 163.17333984 281.81420898 163.17333984 278.79272461 161.41552734 C277.66769531 160.76648438 276.54266602 160.11744141 275.38354492 159.44873047 C274.15527136 158.72947192 272.92708319 158.01006755 271.69897461 157.29052734 C270.44778596 156.56516028 269.19615327 155.84055864 267.9440918 155.11669922 C265.34239604 153.61104334 262.74333585 152.10097867 260.14624023 150.58740234 C256.29032059 148.34132796 252.42574736 146.11051727 248.55834961 143.88427734 C247.35066529 143.18896837 246.14298296 142.49365594 244.93530273 141.79833984 C244.35594971 141.46479492 243.77659668 141.13125 243.1796875 140.78759766 C238.85006499 138.29328557 234.52470632 135.79157886 230.19897461 133.29052734 C230.80377562 130.13414096 231.53043668 127.28198445 232.69897461 124.29052734 C236.88018867 111.91166208 235.51886205 100.55761143 229.88647461 89.04052734 C223.40984404 76.17459156 213.68013455 69.85702012 200.19897461 65.29052734 C195.36958758 64.28443037 190.65069894 64.14459862 185.73764038 64.15008545 C184.89976884 64.14711433 184.06189729 64.1441432 183.1986357 64.14108205 C180.39844549 64.13242883 177.59829821 64.13088966 174.7980957 64.12939453 C172.78714914 64.12476392 170.77620346 64.11973894 168.76525879 64.11434937 C163.3063051 64.10124573 157.8473637 64.09478424 152.38839674 64.09033871 C148.97475616 64.08740436 145.56111891 64.08329884 142.14748001 64.07883453 C131.45807771 64.06516423 120.76868306 64.0554956 110.07927263 64.05163264 C97.756754 64.04715458 85.43434645 64.02961634 73.11186159 64.00063205 C63.5761732 63.9789845 54.04051599 63.9689267 44.5048033 63.96759152 C38.81472666 63.96654559 33.1247545 63.96068299 27.43470383 63.94277191 C22.07814853 63.92623838 16.72177565 63.92416135 11.36520386 63.93291092 C9.40613947 63.9336785 7.44706507 63.92937565 5.48802567 63.91945267 C-11.71259299 63.83748168 -25.93871649 65.55631855 -39.21118164 77.61083984 C-47.72552302 86.60633565 -51.32027079 97.57776174 -51.91040039 109.78271484 C-51.71288249 116.11739613 -50.23682841 122.10679022 -47.63305664 127.88037109 C-46.66676461 130.67944239 -46.67449174 131.58522333 -47.80102539 134.29052734 C-49.82861328 135.80761719 -49.82861328 135.80761719 -52.52368164 137.25146484 C-53.52625 137.79899414 -54.52881836 138.34652344 -55.56176758 138.91064453 C-56.65134766 139.48975586 -57.74092773 140.06886719 -58.86352539 140.66552734 C-61.14205472 141.90553881 -63.41936652 143.14778969 -65.69555664 144.39208984 C-66.28001556 144.70984375 -66.86447449 145.02759766 -67.46664429 145.35498047 C-74.77842525 149.34160831 -81.93330655 153.59665378 -89.09423828 157.84667969 C-90.03388428 158.40049316 -90.97353027 158.95430664 -91.94165039 159.52490234 C-92.76181641 160.0118457 -93.58198242 160.49878906 -94.42700195 161.00048828 C-96.82967748 162.30609683 -99.24399809 163.32752062 -101.80102539 164.29052734 C-115.87663011 138.65406614 -120.62020748 108.82685294 -112.99511719 80.23754883 C-104.84289814 52.28349769 -86.21307804 27.69328093 -60.80102539 13.29052734 C-51.92074296 8.47471669 -42.63445574 4.68091191 -32.80102539 2.29052734 C-32.15062066 2.12296118 -31.50021593 1.95539501 -30.83010197 1.78275108 C-20.68755031 -0.45852761 -10.32745417 -0.0055964 0 0 Z " fill="#0F4C75" transform="translate(164.801025390625,-0.29052734375)"/>
<path d="M0 0 C2.59829519 2.35108994 4.16522372 4.80805197 5.85546875 7.8671875 C6.39171875 8.82955322 6.92796875 9.79191895 7.48046875 10.78344727 C8.04378906 11.80365967 8.60710937 12.82387207 9.1875 13.875 C16.29433349 26.6159908 16.29433349 26.6159908 24 39 C24.40992188 39.62648437 24.81984375 40.25296875 25.2421875 40.8984375 C30.70807684 48.32450784 39.4148704 51.50094042 48.04296875 53.5546875 C54.3734138 54.5080174 59.58135665 53.8134997 65.625 51.875 C67.11430068 51.41834798 68.60389901 50.96266588 70.09375 50.5078125 C70.88136719 50.26450195 71.66898437 50.02119141 72.48046875 49.77050781 C77.01514428 48.38374076 81.5691153 47.06507595 86.125 45.75 C87.0010791 45.49202637 87.8771582 45.23405273 88.77978516 44.96826172 C93.52207215 43.59834872 98.09374249 42.55843581 103 42 C101.68270759 44.63458482 100.57525796 44.69407632 97.875 45.8125 C74.06854676 57.4262347 57.5650252 84.75944765 45 107 C44.63841797 107.63276855 44.27683594 108.26553711 43.90429688 108.91748047 C36.79844844 121.45297411 31.21403144 134.58097704 26 148 C25.66726074 148.84981445 25.33452148 149.69962891 24.99169922 150.57519531 C20.48577789 162.32218644 17.66442697 174.33251995 15.125 186.625 C14.97334381 187.35620056 14.82168762 188.08740112 14.66543579 188.84075928 C6.10202829 230.56485793 9.53810509 275.24370683 33.3046875 311.56640625 C46.30118587 330.79691183 63.18863443 345.16177542 83 357 C83.65919434 357.39429199 84.31838867 357.78858398 84.99755859 358.19482422 C100.80307611 367.46776357 118.40304507 374.02432627 136 379 C136 379.33 136 379.66 136 380 C82.69721317 381.35958711 23.77883834 370.23747608 -16.37719727 332.59985352 C-43.14330497 306.74748961 -54.56238042 271.98340526 -55.3515625 235.41796875 C-55.61114553 198.946553 -46.3989914 164.89888553 -28.33984375 133.31640625 C-27.88907471 132.52427734 -27.43830566 131.73214844 -26.97387695 130.91601562 C-26.10277836 129.39612596 -25.22053586 127.88254451 -24.32495117 126.37695312 C-19.30503776 117.66548496 -17.41432192 108.00809385 -19.65454102 98.10717773 C-22.14704376 89.60330558 -25.78661343 82.40388849 -30.3125 74.8125 C-31.01434464 73.60893856 -31.71467481 72.40449284 -32.41357422 71.19921875 C-35.68652604 65.56863687 -39.01366793 59.9708446 -42.35850525 54.38273621 C-43.782986 51.99707275 -45.19606202 49.60476315 -46.60775757 47.21151733 C-47.61015469 45.52497733 -48.63173863 43.84988887 -49.65356445 42.17504883 C-50.25515381 41.15822021 -50.85674316 40.1413916 -51.4765625 39.09375 C-52.01361816 38.20365234 -52.55067383 37.31355469 -53.10400391 36.39648438 C-54 34 -54 34 -53.47436523 31.87548828 C-51.56870046 29.45135898 -49.64705541 28.36498267 -46.93359375 26.8984375 C-45.38103882 26.04668945 -45.38103882 26.04668945 -43.79711914 25.17773438 C-42.68844482 24.58283203 -41.57977051 23.98792969 -40.4375 23.375 C-38.15286341 22.12382348 -35.86901145 20.87121318 -33.5859375 19.6171875 C-32.4628418 19.00327148 -31.33974609 18.38935547 -30.18261719 17.75683594 C-25.93201038 15.41045924 -21.73815735 12.97675691 -17.5625 10.5 C-16.88767578 10.10039062 -16.21285156 9.70078125 -15.51757812 9.2890625 C-13.67648467 8.19585555 -11.8376975 7.09890389 -10 6 C-8.92492187 5.35804688 -7.84984375 4.71609375 -6.7421875 4.0546875 C-4.49226511 2.70724094 -2.24442271 1.35657982 0 0 Z " fill="#0F4C75" transform="translate(118,132)"/>
<path d="M0 0 C1.31619827 0.0028299 2.63239655 0.00565979 3.98847961 0.00857544 C7.44900432 0.01612834 10.90935499 0.03570255 14.36981201 0.0579834 C17.91643928 0.07862412 21.46309531 0.08761569 25.00976562 0.09765625 C31.94017462 0.11895843 38.87046953 0.15299043 45.80078125 0.1953125 C45.80078125 0.5253125 45.80078125 0.8553125 45.80078125 1.1953125 C45.05054688 1.33066406 44.3003125 1.46601563 43.52734375 1.60546875 C34.86654507 3.4270725 27.50404649 6.21304143 22.0703125 13.5234375 C18.30561825 20.23028777 17.62861686 26.25988348 19.39453125 33.6953125 C22.88343738 44.03281213 31.21436622 52.24648136 40.80078125 57.1953125 C43.64775943 58.35094074 46.49591541 59.38689453 49.41796875 60.3359375 C51.80078125 61.1953125 51.80078125 61.1953125 54.80078125 63.1953125 C54.08827209 63.20117874 53.37576294 63.20704498 52.6416626 63.21308899 C45.87577585 63.27136684 39.11016213 63.34363917 32.34459305 63.43102741 C28.86761105 63.47546085 25.39073897 63.51477333 21.91357422 63.54174805 C17.90173087 63.5731079 13.89048593 63.62788171 9.87890625 63.68359375 C8.6502887 63.68998367 7.42167114 63.6963736 6.15582275 63.70295715 C-8.51831405 63.94904524 -20.60821688 67.52398492 -31.609375 77.515625 C-40.12371638 86.51112081 -43.71846415 97.4825469 -44.30859375 109.6875 C-44.11107585 116.02218128 -42.63502177 122.01157538 -40.03125 127.78515625 C-39.06495796 130.58422754 -39.0726851 131.49000849 -40.19921875 134.1953125 C-42.22680664 135.71240234 -42.22680664 135.71240234 -44.921875 137.15625 C-45.92444336 137.7037793 -46.92701172 138.25130859 -47.95996094 138.81542969 C-49.04954102 139.39454102 -50.13912109 139.97365234 -51.26171875 140.5703125 C-53.54024808 141.81032397 -55.81755988 143.05257485 -58.09375 144.296875 C-58.67820892 144.61462891 -59.26266785 144.93238281 -59.86483765 145.25976562 C-67.17661861 149.24639346 -74.3314999 153.50143893 -81.49243164 157.75146484 C-82.43207764 158.30527832 -83.37172363 158.8590918 -84.33984375 159.4296875 C-85.16000977 159.91663086 -85.98017578 160.40357422 -86.82519531 160.90527344 C-89.22787084 162.21088198 -91.64219144 163.23230577 -94.19921875 164.1953125 C-108.27482347 138.5588513 -113.01840084 108.73163809 -105.39331055 80.14233398 C-97.2410915 52.18828285 -78.6112714 27.59806609 -53.19921875 13.1953125 C-36.29390413 4.02749662 -19.17851015 -0.15766425 0 0 Z " fill="#0F4C75" transform="translate(157.19921875,-0.1953125)"/>
<path d="M0 0 C2.50871129 1.97875556 4.94957248 4.01934806 7.3828125 6.08984375 C8.39794922 6.88648438 8.39794922 6.88648438 9.43359375 7.69921875 C23.97863941 19.47516754 32.91819993 37.20929141 37.3828125 55.08984375 C37.64771484 56.06099121 37.64771484 56.06099121 37.91796875 57.05175781 C39.52059416 63.37985496 39.68215908 69.45931911 39.6328125 75.96484375 C39.64054688 76.97675781 39.64828125 77.98867188 39.65625 79.03125 C39.59133732 104.37965075 28.94870239 127.16001182 11.3828125 145.08984375 C-0.3760914 156.30888406 -14.3203632 163.13685416 -29.6171875 168.08984375 C-30.638125 168.43144531 -31.6590625 168.77304687 -32.7109375 169.125 C-55.61506165 175.60445617 -80.05829532 170.24691102 -100.48095703 159.06982422 C-122.35445144 146.54647436 -137.89105364 126.73991266 -145.0546875 102.52734375 C-151.42732078 78.72284365 -148.36182123 53.24282177 -136.765625 31.640625 C-123.56590134 9.42196665 -103.8743331 -6.79169741 -78.92578125 -13.97265625 C-75.82967794 -14.70529503 -72.74954665 -15.35537874 -69.6171875 -15.91015625 C-68.6890625 -16.09320313 -67.7609375 -16.27625 -66.8046875 -16.46484375 C-43.54949574 -19.71373083 -19.01778264 -13.88014285 0 0 Z M-105.6171875 18.08984375 C-106.86822266 19.06050781 -106.86822266 19.06050781 -108.14453125 20.05078125 C-121.90386499 31.39734082 -130.38422105 50.62804608 -132.6171875 68.08984375 C-133.9369729 90.02857157 -128.62657776 109.73408092 -114.6171875 127.08984375 C-114.12476563 127.734375 -113.63234375 128.37890625 -113.125 129.04296875 C-101.24091572 143.94843039 -83.30071207 152.27542621 -64.78320312 154.85107422 C-42.40916449 157.31746396 -20.94016109 151.40790561 -3.3046875 137.27734375 C13.50795457 122.61052574 23.11702166 102.57038995 24.63671875 80.3828125 C25.24181491 60.49271605 18.9757798 40.92590547 5.3828125 26.08984375 C4.55910156 25.18621094 3.73539063 24.28257812 2.88671875 23.3515625 C-11.07305165 8.71855494 -29.26394121 -0.0665364 -49.5546875 -1.11328125 C-70.95061531 -1.53198825 -89.41947528 3.59715387 -105.6171875 18.08984375 Z " fill="#0F4C75" transform="translate(310.6171875,271.91015625)"/>
<path d="M0 0 C3.27698448 2.99058136 6.79902751 6.4948546 7.16796875 11.09375 C7.17763672 12.28484375 7.17763672 12.28484375 7.1875 13.5 C7.20167969 14.2940625 7.21585937 15.088125 7.23046875 15.90625 C7 18 7 18 5 20 C3.125 20.23046875 3.125 20.23046875 1 20.1875 C0.29875 20.18105469 -0.4025 20.17460937 -1.125 20.16796875 C-3 20 -3 20 -5 19 C-5.88082308 16.70985999 -6.53303769 14.38652273 -7.21875 12.03125 C-7.80935836 9.81437525 -7.80935836 9.81437525 -10 9 C-12.33698675 8.7262068 -12.33698675 8.7262068 -14.9375 8.6875 C-15.81277344 8.65011719 -16.68804687 8.61273438 -17.58984375 8.57421875 C-20.06992995 8.78522668 -20.06992995 8.78522668 -21.62792969 10.5324707 C-23.52571748 13.94544957 -23.41109613 17.10385576 -23.36328125 20.90625 C-23.36377975 21.66796509 -23.36427826 22.42968018 -23.36479187 23.21447754 C-23.36245611 24.8215598 -23.35275693 26.42864605 -23.33618164 28.03564453 C-23.31258125 30.4915447 -23.31562517 32.94635889 -23.32226562 35.40234375 C-23.3166886 36.96615229 -23.30957857 38.52995626 -23.30078125 40.09375 C-23.30169266 40.82613892 -23.30260406 41.55852783 -23.30354309 42.31311035 C-23.25246249 45.99738975 -23.16467205 48.93095271 -21 52 C-17.41980989 53.79009505 -13.43803267 53.46638897 -9.6875 52.25 C-6.99620315 50.25644678 -6.15692971 47.89420323 -5.5859375 44.640625 C-5.51632812 43.85171875 -5.44671875 43.0628125 -5.375 42.25 C-5.30023438 41.45078125 -5.22546875 40.6515625 -5.1484375 39.828125 C-5.09945313 39.22484375 -5.05046875 38.6215625 -5 38 C-5.71027344 38.01160156 -6.42054688 38.02320313 -7.15234375 38.03515625 C-8.07144531 38.04417969 -8.99054688 38.05320312 -9.9375 38.0625 C-10.85402344 38.07410156 -11.77054687 38.08570313 -12.71484375 38.09765625 C-15 38 -15 38 -16 37 C-16.1875 33.5625 -16.1875 33.5625 -16 30 C-13.59170208 27.59170208 -13.00716444 27.74397421 -9.71875 27.734375 C-8.87699219 27.73179687 -8.03523438 27.72921875 -7.16796875 27.7265625 C-6.28753906 27.73429687 -5.40710938 27.74203125 -4.5 27.75 C-3.61957031 27.74226563 -2.73914063 27.73453125 -1.83203125 27.7265625 C-0.99027344 27.72914063 -0.14851563 27.73171875 0.71875 27.734375 C1.87793945 27.73775879 1.87793945 27.73775879 3.06054688 27.74121094 C5 28 5 28 7 30 C7.45289101 33.39607871 7.3240168 36.82720563 7.3125 40.25 C7.32861328 41.19230469 7.34472656 42.13460937 7.36132812 43.10546875 C7.36615281 49.98546718 6.23798041 54.25048121 1.8125 59.6875 C-4.57769056 64.94165668 -10.81815337 65.56213249 -18.875 65.34765625 C-24.7731313 64.69148914 -28.89619324 62.49478777 -32.875 58.125 C-36.68257102 52.52563086 -37.32335664 47.32136334 -37.37109375 40.671875 C-37.38012222 39.88282776 -37.3891507 39.09378052 -37.39845276 38.28082275 C-37.41290351 36.61677816 -37.42182907 34.95267742 -37.42553711 33.28857422 C-37.43740193 30.77081054 -37.4866068 28.25552647 -37.53710938 25.73828125 C-37.64005514 15.47146296 -37.10409657 7.23497084 -29.5625 -0.5 C-20.25852032 -5.94623201 -9.21548594 -5.55829135 0 0 Z " fill="#0F4C75" transform="translate(304,322)"/>
<path d="M0 0 C3.1502202 0.25542326 4.81416064 0.86306573 7.375 2.75 C9 5 9 5 8.93359375 7.203125 C7.6231199 11.1290634 5.30115404 13.83521321 2.6875 17 C2.20087891 17.60328125 1.71425781 18.2065625 1.21289062 18.828125 C0.26081928 20.00700204 -0.69495783 21.18289789 -1.65478516 22.35546875 C-3.45467604 24.55584352 -5.22775975 26.7773329 -7 29 C-5.51997657 33.22556707 -3.39168877 36.55620427 -0.83203125 40.21875 C-0.01307271 41.40974447 0.80526848 42.60116364 1.62304688 43.79296875 C2.90713254 45.6539696 4.19552761 47.51143204 5.49487305 49.36181641 C6.75368712 51.15930682 7.99320305 52.96888525 9.23046875 54.78125 C9.97707764 55.85439453 10.72368652 56.92753906 11.49291992 58.03320312 C13 61 13 61 12.8449707 63.77539062 C11.7534937 66.64899318 10.70895652 67.57027295 8 69 C5.625 69.625 5.625 69.625 3 69 C-1.78891026 64.50575249 -5.23691173 58.78059323 -8.6875 53.25 C-9.62537158 51.75298806 -10.56665637 50.25810781 -11.51171875 48.765625 C-11.91865967 48.11368164 -12.32560059 47.46173828 -12.74487305 46.79003906 C-14.01431128 44.97958952 -15.3922057 43.51232513 -17 42 C-19.55272436 44.95863759 -20.37618346 46.79678619 -20.44140625 50.6953125 C-20.46783203 51.57574219 -20.49425781 52.45617187 -20.52148438 53.36328125 C-20.53501953 54.27464844 -20.54855469 55.18601562 -20.5625 56.125 C-20.5968708 57.94028733 -20.63943864 59.75544368 -20.69140625 61.5703125 C-20.70373291 62.37227051 -20.71605957 63.17422852 -20.72875977 64.00048828 C-21 66 -21 66 -23 68 C-25.09375 68.265625 -25.09375 68.265625 -27.5 68.25 C-28.2940625 68.25515625 -29.088125 68.2603125 -29.90625 68.265625 C-32 68 -32 68 -34 66 C-34.25396729 63.38122559 -34.25396729 63.38122559 -34.25878906 60.02148438 C-34.26509338 58.76678345 -34.27139771 57.51208252 -34.27789307 56.21936035 C-34.27431339 54.84415548 -34.27021145 53.46895188 -34.265625 52.09375 C-34.26697173 50.68892347 -34.26891232 49.28409739 -34.27142334 47.87927246 C-34.27437426 44.93363004 -34.27007809 41.98810882 -34.26074219 39.04248047 C-34.24934755 35.26261497 -34.25590721 31.48303348 -34.26788712 27.70317841 C-34.27510665 24.80187837 -34.27281738 21.90064591 -34.26763153 18.99934387 C-34.26629529 17.60545315 -34.26794188 16.21155634 -34.27259064 14.81767273 C-34.27765711 12.87128819 -34.2685687 10.92488219 -34.25878906 8.97851562 C-34.25719788 7.86980103 -34.25560669 6.76108643 -34.25396729 5.61877441 C-34 3 -34 3 -32 1 C-29.90625 0.734375 -29.90625 0.734375 -27.5 0.75 C-26.7059375 0.74484375 -25.911875 0.7396875 -25.09375 0.734375 C-23 1 -23 1 -21 3 C-20.68115234 5.43017578 -20.68115234 5.43017578 -20.5859375 8.4453125 C-20.52792969 10.05986328 -20.52792969 10.05986328 -20.46875 11.70703125 C-20.4378125 12.83496094 -20.406875 13.96289062 -20.375 15.125 C-20.33632812 16.26066406 -20.29765625 17.39632813 -20.2578125 18.56640625 C-20.16332399 21.37743956 -20.07776459 24.18846233 -20 27 C-19.38253906 26.12859375 -18.76507813 25.2571875 -18.12890625 24.359375 C-2.84725458 2.84725458 -2.84725458 2.84725458 0 0 Z " fill="#0F4C75" transform="translate(245,318)"/>
</svg>
